<svg xmlns:dc="http://purl.org/dc/elements/1.1/" xmlns:cc="http://creativecommons.org/ns#" xmlns:rdf="http://www.w3.org/1999/02/22-rdf-syntax-ns#" xmlns:svg="http://www.w3.org/2000/svg" xmlns="http://www.w3.org/2000/svg" xmlns:sodipodi="http://sodipodi.sourceforge.net/DTD/sodipodi-0.dtd" xmlns:inkscape="http://www.inkscape.org/namespaces/inkscape" version="1.1" x="0px" y="0px" viewBox="0 0 100 125"><g transform="translate(0,-952.36218)"><path d="m 40,958.36216 c -5,20 -12,25 -29,31 l 0,14.00004 36,43 0,-13 c 15,-5 24,-16 30,-29 z m 8,88.00004 c 19,-5 32,-10 38,-13 l 0,-10.9688 c -9.2496,7.3716 -26.8828,17.7083 -38,21.9688 z m 2,-83.00004 -1.875,1.875 30.4375,37.84374 c 0.4621,0.5784 0.5629,1.4228 0.25,2.0938 -6.0927,13.201 -15.4148,24.9295 -30.8125,30.1875 l 0.031,2.25 c 16,-4 27.9688,-18.25 38.9688,-31.25 l -37,-43.00004 z m -7.5,9.65625 8,9 c 0.5063,0.57746 0.6341,1.4588 0.3125,2.15625 -4.1396,9.31402 -9.6081,14.81968 -17.9063,18.96874 -0.7853,0.3961 -1.827,0.1932 -2.4062,-0.4687 l -9,-10.00004 c -0.8927,-1.0041 -0.3529,-2.87565 0.9375,-3.25 9.672,-2.90158 12.8212,-6.06863 16.7188,-15.8125 1.1636,-1.51691 1.8745,-1.56172 3.3437,-0.59375 z m 41.7813,39.62499 C 75.0257,1023.3832 61.2822,1035.9881 48,1040.3622 l 0,2 c 15,-4 29,-15 41,-25 z" style="color:#FED700;enable-background:accumulate;" fill="#FED700" stroke="none" marker="none" visibility="visible" display="inline" overflow="visible"/></g></svg>